<?xml version="1.0" encoding="utf-8"?>
<!-- Generator: Adobe Illustrator 15.0.0, SVG Export Plug-In . SVG Version: 6.00 Build 0)  -->
<!DOCTYPE svg PUBLIC "-//W3C//DTD SVG 1.1//EN" "http://www.w3.org/Graphics/SVG/1.1/DTD/svg11.dtd">
<svg version="1.1" id="Layer_1" xmlns="http://www.w3.org/2000/svg" xmlns:xlink="http://www.w3.org/1999/xlink" x="0px" y="0px"
	 width="797.43px" height="250px" viewBox="0 0 797.43 250" enable-background="new 0 0 797.43 250" xml:space="preserve">
<ellipse fill="#FFFFFF" stroke="#000000" stroke-width="3" stroke-miterlimit="10" cx="586.56" cy="101.332" rx="210.87" ry="81.64"/>
<g>
	<circle fill="#F38E19" cx="125" cy="125" r="125"/>
	<g>
		<path fill="#FFFFFF" d="M26.322,93.082h6.001c0.047,0.847,0.094,1.6,0.142,2.258c0.046,0.66,0.093,1.285,0.141,1.871
			c0.046,0.59,0.094,1.166,0.142,1.732c0.045,0.564,0.093,1.176,0.142,1.835c1.13-2.542,2.553-4.579,4.272-6.108
			c1.719-1.528,4.082-2.317,7.097-2.366c2.963,0,5.329,0.742,7.095,2.225c1.765,1.482,2.812,3.424,3.142,5.824
			c0.565-1.176,1.202-2.258,1.906-3.249c0.707-0.987,1.495-1.836,2.367-2.542c0.869-0.704,1.871-1.259,3-1.659
			c1.13-0.399,2.445-0.6,3.955-0.6c3.105,0,5.576,0.837,7.415,2.507c1.833,1.671,2.798,3.848,2.894,6.532v21.746h-6.777V104.52
			c-0.095-1.459-0.589-2.719-1.483-3.777c-0.895-1.061-2.378-1.636-4.45-1.731c-2.778,0-4.931,0.908-6.461,2.719
			c-1.528,1.813-2.293,4.132-2.293,6.955v14.404h-6.779V104.52c-0.094-1.459-0.599-2.719-1.516-3.777
			c-0.92-1.061-2.392-1.636-4.414-1.731c-2.781,0-4.934,0.908-6.463,2.719c-1.529,1.813-2.294,4.107-2.294,6.885v14.474h-6.778
			V93.082z"/>
		<path fill="#FFFFFF" d="M82.244,108.404c0-2.166,0.425-4.225,1.271-6.18c0.848-1.951,1.988-3.658,3.425-5.12
			c1.436-1.457,3.107-2.622,5.014-3.494c1.906-0.87,3.919-1.306,6.039-1.306c1.41,0,2.681,0.178,3.813,0.529
			c1.129,0.354,2.106,0.766,2.93,1.235c0.823,0.471,1.47,0.955,1.941,1.448c0.47,0.495,0.776,0.884,0.917,1.165l0.284-3.6h6.568
			v30.007h-6.852v-1.977c0-0.235,0.011-0.459,0.036-0.671c0.024-0.21,0.036-0.363,0.036-0.458c-0.189,0.237-0.518,0.578-0.988,1.025
			c-0.472,0.447-1.107,0.882-1.909,1.305c-0.799,0.424-1.751,0.787-2.858,1.096c-1.106,0.305-2.389,0.458-3.846,0.458
			c-2.308,0-4.427-0.423-6.355-1.271c-1.932-0.848-3.604-1.977-5.014-3.39c-1.413-1.411-2.508-3.047-3.284-4.907
			C82.633,112.44,82.244,110.475,82.244,108.404z M89.095,107.979c0,1.319,0.221,2.542,0.67,3.671
			c0.446,1.131,1.081,2.108,1.905,2.931c0.824,0.824,1.8,1.471,2.931,1.942c1.129,0.469,2.375,0.705,3.742,0.705
			c1.364,0,2.611-0.236,3.742-0.705c1.13-0.472,2.106-1.131,2.932-1.978c0.822-0.849,1.458-1.835,1.905-2.966
			c0.447-1.131,0.67-2.331,0.67-3.602c0-1.271-0.224-2.458-0.67-3.566c-0.447-1.105-1.083-2.06-1.905-2.86
			c-0.825-0.8-1.802-1.436-2.932-1.907c-1.131-0.47-2.378-0.704-3.742-0.704c-1.367,0-2.613,0.224-3.742,0.668
			c-1.131,0.45-2.107,1.085-2.931,1.907c-0.824,0.825-1.459,1.791-1.905,2.896C89.316,105.521,89.095,106.708,89.095,107.979z"/>
		<path fill="#FFFFFF" d="M154.904,108.191c0,2.259-0.378,4.343-1.131,6.249c-0.753,1.907-1.825,3.566-3.211,4.979
			c-1.391,1.413-3.049,2.506-4.98,3.284c-1.931,0.777-4.048,1.164-6.354,1.164s-4.343-0.436-6.107-1.307
			c-1.766-0.87-2.979-1.799-3.637-2.787c0,0.188,0.011,0.363,0.035,0.529c0.024,0.163,0.037,0.365,0.037,0.6v35.695h-6.779V93.082
			h6.496c0,0.66,0.047,1.317,0.142,1.977c0.093,0.66,0.142,1.271,0.142,1.835c0.376-0.469,0.857-0.977,1.446-1.519
			c0.589-0.54,1.309-1.034,2.154-1.481c0.847-0.447,1.801-0.824,2.859-1.131c1.059-0.306,2.225-0.459,3.497-0.459
			c2.305,0,4.402,0.366,6.283,1.094c1.884,0.731,3.497,1.792,4.837,3.178c1.342,1.39,2.389,3.062,3.142,5.013
			C154.526,103.543,154.904,105.744,154.904,108.191z M147.56,108.05c0-2.635-0.766-4.812-2.294-6.533
			c-1.532-1.716-3.66-2.575-6.39-2.575c-1.367,0-2.613,0.224-3.742,0.668c-1.131,0.45-2.108,1.085-2.933,1.907
			c-0.823,0.825-1.472,1.791-1.941,2.896c-0.469,1.107-0.705,2.294-0.705,3.566c0,1.319,0.235,2.542,0.705,3.671
			c0.47,1.131,1.119,2.108,1.941,2.931c0.825,0.824,1.801,1.471,2.933,1.942c1.128,0.469,2.375,0.705,3.742,0.705
			c1.364,0,2.589-0.236,3.672-0.705c1.082-0.472,1.988-1.131,2.718-1.978c0.729-0.849,1.293-1.825,1.695-2.933
			C147.361,110.51,147.56,109.322,147.56,108.05z"/>
		<path fill="#FFFFFF" d="M193.527,108.191c0,2.259-0.376,4.343-1.129,6.249c-0.753,1.907-1.826,3.566-3.213,4.979
			c-1.391,1.413-3.049,2.506-4.979,3.284c-1.931,0.777-4.048,1.164-6.353,1.164c-2.308,0-4.345-0.436-6.107-1.307
			c-1.767-0.87-2.978-1.799-3.638-2.787c0,0.188,0.011,0.363,0.035,0.529c0.025,0.163,0.036,0.365,0.036,0.6v16.591h-6.778V93.082
			h6.495c0,0.66,0.048,1.317,0.142,1.977c0.093,0.66,0.142,1.271,0.142,1.835c0.376-0.469,0.856-0.977,1.448-1.519
			c0.587-0.54,1.306-1.034,2.153-1.481c0.848-0.447,1.8-0.824,2.861-1.131c1.058-0.306,2.223-0.459,3.495-0.459
			c2.306,0,4.402,0.366,6.284,1.094c1.881,0.731,3.496,1.792,4.837,3.178c1.342,1.39,2.389,3.062,3.142,5.013
			C193.15,103.543,193.527,105.744,193.527,108.191z M186.185,108.05c0-2.635-0.768-4.812-2.297-6.533
			c-1.529-1.716-3.66-2.575-6.389-2.575c-1.367,0-2.613,0.224-3.742,0.668c-1.131,0.45-2.11,1.085-2.931,1.907
			c-0.825,0.825-1.472,1.791-1.942,2.896c-0.472,1.107-0.706,2.294-0.706,3.566c0,1.319,0.234,2.542,0.706,3.671
			c0.47,1.131,1.117,2.108,1.942,2.931c0.821,0.824,1.8,1.471,2.931,1.942c1.129,0.469,2.375,0.705,3.742,0.705
			c1.364,0,2.588-0.236,3.672-0.705c1.081-0.472,1.987-1.131,2.717-1.978c0.73-0.849,1.294-1.825,1.696-2.933
			C185.983,110.51,186.185,109.322,186.185,108.05z"/>
		<path fill="#FFFFFF" d="M207.65,137.493h-6.779c0.708-1.41,1.365-2.765,1.979-4.058c0.611-1.296,1.222-2.613,1.833-3.955
			c0.612-1.342,1.249-2.719,1.908-4.13c0.659-1.412,1.387-2.943,2.188-4.589c-1.085-2.119-2.201-4.354-3.354-6.708
			c-1.153-2.354-2.318-4.731-3.495-7.132c-1.177-2.401-2.343-4.777-3.494-7.133c-1.156-2.354-2.25-4.589-3.284-6.707h7.343
			c1.789,3.483,3.248,6.401,4.378,8.755c1.129,2.354,2.047,4.331,2.752,5.932c0.708,1.601,1.249,2.906,1.626,3.917
			c0.377,1.014,0.682,1.942,0.916,2.79c0.283-0.848,0.612-1.776,0.99-2.79c0.377-1.012,0.919-2.316,1.623-3.917
			c0.709-1.601,1.625-3.578,2.755-5.932c1.129-2.354,2.588-5.272,4.378-8.755h7.273L207.65,137.493z"/>
	</g>
	<path fill="none" stroke="#FFFFFF" stroke-width="7.6336" stroke-linecap="round" stroke-miterlimit="10" d="M55.489,156.488
		c12.017,26.421,38.645,44.848,69.511,44.848s57.494-18.427,69.511-44.848"/>
</g>
<circle fill="#FFFFFF" stroke="#000000" stroke-width="3" stroke-miterlimit="10" cx="287.456" cy="103.977" r="15"/>
<circle fill="#FFFFFF" stroke="#000000" stroke-width="3" stroke-miterlimit="10" cx="338.953" cy="95.978" r="22.499"/>
<g>
	<path d="M466.222,77.562c0.373,0.507,0.706,0.994,1,1.46c0.293,0.467,0.627,0.94,1,1.42c-0.854,0.614-1.779,1.1-2.779,1.46
		s-2.047,0.54-3.141,0.54c-1.174,0-2.247-0.214-3.22-0.64c-0.974-0.426-1.82-1.006-2.54-1.74c-0.72-0.733-1.28-1.586-1.68-2.56
		c-0.4-0.973-0.601-2.006-0.601-3.1c0-1.333,0.28-2.593,0.84-3.78c0.561-1.187,1.307-2.233,2.24-3.14
		c0.934-0.906,2.021-1.62,3.26-2.14c1.24-0.52,2.54-0.78,3.9-0.78c1.12,0,2.14,0.18,3.06,0.54s1.74,0.847,2.46,1.46l-2.8,2.84
		c-0.8-0.72-1.866-1.08-3.2-1.08c-0.854,0-1.64,0.147-2.359,0.44c-0.72,0.294-1.347,0.694-1.88,1.2
		c-0.534,0.507-0.947,1.114-1.24,1.82c-0.294,0.707-0.44,1.46-0.44,2.26c0,1.307,0.413,2.407,1.24,3.3
		c0.826,0.894,1.96,1.34,3.4,1.34C464.075,78.682,465.235,78.309,466.222,77.562z"/>
	<path d="M475.021,82.002h-3.8l3.84-31.24h3.8L475.021,82.002z"/>
	<path d="M483.582,82.002h-3.84l2.08-17h3.84L483.582,82.002z M482.223,58.642c0-0.773,0.286-1.406,0.859-1.9
		c0.573-0.493,1.181-0.74,1.82-0.74c0.533,0,1.013,0.207,1.439,0.62c0.427,0.414,0.641,0.927,0.641,1.54c0,0.4-0.08,0.76-0.24,1.08
		c-0.16,0.32-0.367,0.6-0.62,0.84c-0.254,0.24-0.54,0.42-0.859,0.54c-0.32,0.12-0.627,0.18-0.921,0.18
		c-0.56,0-1.054-0.193-1.479-0.58C482.436,59.836,482.223,59.309,482.223,58.642z"/>
	<path d="M500.101,77.562c0.373,0.507,0.706,0.994,1,1.46c0.293,0.467,0.627,0.94,1,1.42c-0.854,0.614-1.779,1.1-2.779,1.46
		s-2.047,0.54-3.141,0.54c-1.174,0-2.247-0.214-3.22-0.64c-0.974-0.426-1.82-1.006-2.54-1.74c-0.72-0.733-1.28-1.586-1.68-2.56
		c-0.4-0.973-0.601-2.006-0.601-3.1c0-1.333,0.28-2.593,0.84-3.78c0.561-1.187,1.307-2.233,2.24-3.14
		c0.934-0.906,2.021-1.62,3.26-2.14c1.24-0.52,2.54-0.78,3.9-0.78c1.12,0,2.14,0.18,3.06,0.54s1.74,0.847,2.46,1.46l-2.8,2.84
		c-0.8-0.72-1.866-1.08-3.2-1.08c-0.854,0-1.64,0.147-2.359,0.44c-0.72,0.294-1.347,0.694-1.88,1.2
		c-0.534,0.507-0.947,1.114-1.24,1.82c-0.294,0.707-0.44,1.46-0.44,2.26c0,1.307,0.413,2.407,1.24,3.3
		c0.826,0.894,1.96,1.34,3.4,1.34C497.954,78.682,499.114,78.309,500.101,77.562z"/>
	<path d="M519.462,64.602c0.346,0.374,0.68,0.747,1,1.12c0.319,0.374,0.666,0.747,1.04,1.12c-1.147,0.934-2.234,1.847-3.261,2.74
		c-1.026,0.894-2.113,1.807-3.26,2.74c1.014,1.6,2,3.214,2.96,4.84c0.96,1.627,1.934,3.24,2.92,4.84h-4.399
		c-0.747-1.2-1.494-2.393-2.24-3.58c-0.747-1.186-1.467-2.38-2.16-3.58l-2.52,2l-0.601,5.16h-3.84l3.84-31.24h3.84l-2.68,21.64
		c1.626-1.36,3.193-2.66,4.7-3.9C516.308,67.262,517.861,65.962,519.462,64.602z"/>
	<path d="M532.341,73.482c0.133-1.226,0.507-2.38,1.12-3.46s1.38-2.02,2.3-2.82c0.92-0.8,1.96-1.433,3.12-1.9
		c1.16-0.466,2.38-0.7,3.66-0.7c1.173,0,2.246,0.207,3.22,0.62s1.807,0.98,2.5,1.7c0.693,0.72,1.233,1.56,1.62,2.52
		s0.58,2,0.58,3.12c0,1.333-0.267,2.6-0.8,3.8c-0.534,1.2-1.26,2.247-2.181,3.14c-0.92,0.894-2,1.607-3.239,2.14
		c-1.24,0.533-2.554,0.8-3.94,0.8c-1.254,0-2.399-0.214-3.439-0.64s-1.92-1.033-2.641-1.82c-0.72-0.786-1.254-1.733-1.6-2.84
		C532.274,76.036,532.181,74.816,532.341,73.482z M536.141,73.522c-0.08,0.72-0.02,1.394,0.181,2.02
		c0.199,0.627,0.5,1.174,0.899,1.64c0.4,0.467,0.9,0.833,1.5,1.1c0.601,0.267,1.26,0.4,1.98,0.4c0.746,0,1.473-0.153,2.18-0.46
		c0.706-0.307,1.333-0.72,1.88-1.24s0.98-1.12,1.3-1.8c0.32-0.68,0.48-1.406,0.48-2.18c0-0.64-0.12-1.246-0.36-1.82
		c-0.239-0.573-0.566-1.073-0.979-1.5c-0.414-0.426-0.9-0.76-1.46-1c-0.561-0.24-1.16-0.36-1.8-0.36c-0.721,0-1.414,0.14-2.08,0.42
		c-0.667,0.28-1.261,0.653-1.78,1.12c-0.521,0.467-0.954,1.014-1.3,1.64C536.434,72.129,536.221,72.802,536.141,73.522z"/>
	<path d="M555.02,65.002h3.4c-0.054,0.48-0.087,0.907-0.101,1.28c-0.014,0.374-0.026,0.727-0.04,1.06
		c-0.014,0.334-0.026,0.66-0.04,0.98c-0.014,0.32-0.033,0.667-0.06,1.04c0.8-1.44,1.819-2.6,3.06-3.48s2.7-1.32,4.38-1.32
		c1.733,0,3.054,0.474,3.96,1.42c0.906,0.947,1.294,2.18,1.16,3.7l-1.52,12.32h-3.8l1.279-10.52c0.054-0.826-0.146-1.54-0.6-2.14
		c-0.454-0.6-1.24-0.926-2.36-0.98c-0.773,0-1.507,0.14-2.2,0.42c-0.693,0.28-1.3,0.66-1.819,1.14c-0.521,0.48-0.954,1.054-1.3,1.72
		c-0.348,0.667-0.561,1.387-0.641,2.16l-1,8.2h-3.84L555.02,65.002z"/>
	<path d="M587.459,57.562h3.801l-0.88,7.44h4.399l-0.439,3.44h-4.4l-1.68,13.56h-3.801l1.641-13.56h-2.88l0.439-3.44h2.88
		L587.459,57.562z"/>
	<path d="M599.379,50.762h3.84l-2.279,18.36c0.772-1.36,1.739-2.453,2.899-3.28c1.16-0.826,2.58-1.253,4.26-1.28
		c1.761,0,3.113,0.467,4.061,1.4c0.946,0.934,1.34,2.174,1.18,3.72l-1.52,12.32h-3.8l1.279-10.52c0.054-0.826-0.146-1.54-0.6-2.14
		c-0.454-0.6-1.24-0.926-2.36-0.98c-0.773,0-1.507,0.14-2.2,0.42c-0.693,0.28-1.3,0.66-1.819,1.14c-0.521,0.48-0.954,1.054-1.3,1.72
		c-0.348,0.667-0.561,1.387-0.641,2.16l-1,8.2h-3.84L599.379,50.762z"/>
	<path d="M631.139,80.042c-0.934,0.747-2.014,1.333-3.239,1.76c-1.228,0.426-2.44,0.64-3.641,0.64c-1.174,0-2.247-0.214-3.22-0.64
		c-0.974-0.426-1.82-1.006-2.54-1.74c-0.72-0.733-1.28-1.586-1.68-2.56c-0.4-0.973-0.601-2.006-0.601-3.1
		c0-1.333,0.28-2.593,0.84-3.78c0.561-1.187,1.313-2.227,2.261-3.12c0.946-0.893,2.025-1.6,3.239-2.12s2.46-0.78,3.74-0.78
		c1.92,0,3.533,0.574,4.84,1.72c1.307,1.147,2.146,2.68,2.521,4.6c-0.854,0.294-1.827,0.647-2.92,1.06
		c-1.094,0.414-2.24,0.847-3.44,1.3c-1.2,0.454-2.399,0.914-3.6,1.38c-1.2,0.467-2.308,0.887-3.32,1.26
		c0.32,0.827,0.854,1.494,1.6,2c0.747,0.507,1.627,0.76,2.641,0.76c0.693,0,1.406-0.126,2.14-0.38
		c0.733-0.253,1.354-0.593,1.86-1.02L631.139,80.042z M629.019,70.042c-0.267-0.586-0.699-1.02-1.3-1.3
		c-0.6-0.28-1.207-0.42-1.819-0.42c-0.747,0-1.461,0.147-2.141,0.44c-0.68,0.294-1.28,0.68-1.8,1.16
		c-0.521,0.48-0.947,1.034-1.28,1.66c-0.334,0.627-0.526,1.26-0.58,1.9c0.693-0.266,1.44-0.553,2.24-0.86
		c0.8-0.306,1.6-0.62,2.4-0.94c0.8-0.32,1.573-0.62,2.319-0.9C627.806,70.502,628.459,70.256,629.019,70.042z M620.099,73.482v0.04
		c0,0.054,0.007,0.074,0.021,0.06C620.132,73.569,620.125,73.536,620.099,73.482z"/>
	<path d="M646.339,65.002h3.36c-0.054,0.48-0.087,0.907-0.101,1.28c-0.014,0.374-0.026,0.727-0.04,1.06
		c-0.014,0.334-0.02,0.66-0.02,0.98c0,0.32-0.014,0.667-0.04,1.04c0.8-1.44,1.74-2.593,2.819-3.46
		c1.08-0.866,2.474-1.313,4.181-1.34c1.68,0,2.973,0.42,3.88,1.26c0.906,0.84,1.36,1.94,1.36,3.3c0.826-1.36,1.772-2.46,2.84-3.3
		c1.066-0.84,2.426-1.26,4.08-1.26c1.76,0,3.105,0.474,4.04,1.42c0.933,0.947,1.333,2.18,1.199,3.7l-1.52,12.32h-3.84l1.279-10.52
		c0.054-0.826-0.133-1.54-0.56-2.14c-0.427-0.6-1.227-0.926-2.4-0.98c-1.573,0-2.859,0.514-3.859,1.54
		c-1,1.027-1.607,2.34-1.82,3.94l-0.96,8.16h-3.84l1.28-10.52c0.08-0.826-0.114-1.54-0.58-2.14c-0.467-0.6-1.261-0.926-2.38-0.98
		c-1.574,0-2.854,0.514-3.841,1.54c-0.986,1.027-1.587,2.327-1.8,3.9l-1,8.2h-3.84L646.339,65.002z"/>
	<path d="M676.778,74.562c0-1.333,0.28-2.6,0.84-3.8c0.561-1.2,1.313-2.26,2.261-3.18c0.946-0.92,2.025-1.653,3.239-2.2
		c1.214-0.546,2.474-0.82,3.78-0.82c0.8,0,1.506,0.1,2.12,0.3c0.613,0.2,1.133,0.434,1.56,0.7c0.427,0.267,0.761,0.54,1,0.82
		c0.24,0.28,0.387,0.5,0.44,0.66l0.44-2.04h3.68l-2.08,17h-3.88l0.16-1.12c0.026-0.133,0.04-0.26,0.04-0.38s0.013-0.206,0.04-0.26
		c-0.107,0.133-0.308,0.327-0.601,0.58c-0.294,0.254-0.68,0.5-1.16,0.74c-0.479,0.24-1.047,0.446-1.699,0.62
		c-0.654,0.173-1.395,0.26-2.221,0.26c-1.2,0-2.294-0.214-3.279-0.64c-0.987-0.426-1.827-1-2.521-1.72
		c-0.693-0.72-1.227-1.553-1.6-2.5C676.965,76.636,676.778,75.629,676.778,74.562z M680.698,74.042c0,1.333,0.42,2.44,1.261,3.32
		c0.84,0.88,1.979,1.32,3.42,1.32c0.826,0,1.605-0.153,2.34-0.46c0.732-0.307,1.359-0.72,1.88-1.24c0.52-0.52,0.933-1.133,1.24-1.84
		c0.306-0.707,0.46-1.46,0.46-2.26c0-1.306-0.42-2.393-1.261-3.26c-0.84-0.866-1.979-1.3-3.42-1.3c-0.826,0-1.6,0.147-2.319,0.44
		c-0.721,0.294-1.348,0.694-1.88,1.2c-0.534,0.507-0.954,1.114-1.261,1.82C680.852,72.489,680.698,73.242,680.698,74.042z"/>
	<path d="M718.099,72.322c0,1.467-0.261,2.82-0.78,4.06c-0.521,1.24-1.227,2.307-2.12,3.2c-0.894,0.894-1.96,1.594-3.2,2.1
		c-1.239,0.506-2.58,0.76-4.02,0.76c-1.307,0-2.427-0.247-3.36-0.74s-1.547-1.02-1.84-1.58c-0.027,0.107-0.034,0.207-0.02,0.3
		c0.013,0.094,0.006,0.207-0.021,0.34l-1.16,9.4h-3.84l3.08-25.16h3.68c-0.054,0.374-0.066,0.747-0.04,1.12
		c0.026,0.374,0.014,0.72-0.04,1.04c0.24-0.267,0.547-0.553,0.92-0.86c0.374-0.306,0.813-0.586,1.32-0.84
		c0.507-0.253,1.073-0.466,1.7-0.64c0.626-0.173,1.3-0.26,2.02-0.26c1.174,0,2.233,0.18,3.181,0.54
		c0.946,0.36,1.76,0.874,2.439,1.54c0.681,0.667,1.2,1.48,1.561,2.44C717.918,70.042,718.099,71.122,718.099,72.322z
		 M713.858,72.802c0-1.306-0.374-2.38-1.12-3.22c-0.747-0.84-1.813-1.26-3.2-1.26c-0.854,0-1.64,0.147-2.359,0.44
		c-0.721,0.294-1.341,0.694-1.86,1.2c-0.521,0.507-0.934,1.114-1.24,1.82c-0.307,0.707-0.46,1.46-0.46,2.26
		c0,1.333,0.413,2.44,1.24,3.32c0.826,0.88,1.96,1.32,3.4,1.32c0.853,0,1.626-0.153,2.319-0.46s1.28-0.733,1.76-1.28
		c0.48-0.546,0.854-1.173,1.12-1.88C713.725,74.355,713.858,73.602,713.858,72.802z"/>
	<path d="M415.981,105.562h3.8l-0.88,7.44h4.399l-0.439,3.44h-4.4l-1.68,13.56h-3.8l1.64-13.56h-2.88l0.44-3.44h2.88
		L415.981,105.562z"/>
	<path d="M423.701,121.482c0.134-1.226,0.507-2.38,1.12-3.46s1.38-2.02,2.3-2.82c0.921-0.8,1.96-1.433,3.12-1.9
		c1.16-0.466,2.38-0.7,3.66-0.7c1.173,0,2.246,0.207,3.22,0.62s1.807,0.98,2.5,1.7c0.693,0.72,1.233,1.56,1.62,2.52
		s0.58,2,0.58,3.12c0,1.333-0.267,2.6-0.8,3.8c-0.534,1.2-1.26,2.247-2.18,3.14c-0.92,0.894-2,1.607-3.24,2.14s-2.554,0.8-3.94,0.8
		c-1.253,0-2.399-0.214-3.439-0.64s-1.92-1.033-2.641-1.82c-0.72-0.786-1.253-1.733-1.6-2.84
		C423.635,124.036,423.542,122.816,423.701,121.482z M427.502,121.522c-0.08,0.72-0.021,1.394,0.18,2.02
		c0.2,0.627,0.5,1.174,0.899,1.64c0.4,0.467,0.9,0.833,1.5,1.1c0.601,0.267,1.261,0.4,1.98,0.4c0.746,0,1.473-0.153,2.18-0.46
		s1.333-0.72,1.88-1.24s0.98-1.12,1.301-1.8c0.319-0.68,0.479-1.406,0.479-2.18c0-0.64-0.12-1.246-0.359-1.82
		c-0.24-0.573-0.567-1.073-0.98-1.5c-0.414-0.426-0.9-0.76-1.46-1c-0.56-0.24-1.16-0.36-1.8-0.36c-0.721,0-1.414,0.14-2.08,0.42
		c-0.667,0.28-1.26,0.653-1.78,1.12c-0.52,0.467-0.954,1.014-1.3,1.64C427.795,120.129,427.581,120.802,427.502,121.522z"/>
	<path d="M453.741,116.722l0.479-3.76h2.88l0.44-3.6c0.426-3.573,1.58-6.206,3.46-7.9c1.88-1.693,4.394-2.593,7.54-2.7l-0.44,3.64
		c-2.134,0.134-3.714,0.8-4.739,2c-1.027,1.2-1.688,2.907-1.98,5.12l-0.439,3.44h5.279l-0.479,3.76h-5.24l-1.64,13.28h-3.841
		l1.601-13.28H453.741z"/>
	<path d="M470.82,130.002h-3.84l2.08-17h3.84L470.82,130.002z M469.461,106.642c0-0.773,0.286-1.406,0.859-1.9
		c0.573-0.493,1.181-0.74,1.82-0.74c0.533,0,1.013,0.207,1.439,0.62c0.427,0.414,0.641,0.927,0.641,1.54c0,0.4-0.08,0.76-0.24,1.08
		c-0.16,0.32-0.367,0.6-0.62,0.84c-0.254,0.24-0.54,0.42-0.859,0.54c-0.32,0.12-0.627,0.18-0.921,0.18
		c-0.56,0-1.054-0.193-1.479-0.58C469.674,107.836,469.461,107.309,469.461,106.642z"/>
	<path d="M477.62,113.002h3.4c-0.054,0.48-0.087,0.907-0.101,1.28c-0.014,0.374-0.026,0.727-0.04,1.06
		c-0.014,0.334-0.026,0.66-0.04,0.98c-0.014,0.32-0.033,0.667-0.06,1.04c0.8-1.44,1.819-2.6,3.06-3.48s2.7-1.32,4.38-1.32
		c1.733,0,3.054,0.474,3.96,1.42c0.906,0.947,1.294,2.18,1.16,3.7l-1.52,12.32h-3.8l1.279-10.52c0.054-0.826-0.146-1.54-0.6-2.14
		c-0.454-0.6-1.24-0.926-2.36-0.98c-0.773,0-1.507,0.14-2.2,0.42c-0.693,0.28-1.3,0.66-1.819,1.14c-0.521,0.48-0.954,1.054-1.3,1.72
		c-0.348,0.667-0.561,1.387-0.641,2.16l-1,8.2h-3.84L477.62,113.002z"/>
	<path d="M496.3,122.602c0-1.466,0.267-2.813,0.8-4.04c0.533-1.226,1.246-2.286,2.141-3.18c0.893-0.893,1.939-1.586,3.14-2.08
		c1.2-0.493,2.48-0.74,3.84-0.74c0.854,0,1.58,0.094,2.181,0.28c0.6,0.187,1.112,0.414,1.539,0.68c0.427,0.267,0.761,0.554,1,0.86
		c0.24,0.307,0.427,0.567,0.561,0.78c0-0.106,0.053-0.566,0.16-1.38c0.106-0.813,0.232-1.806,0.38-2.98
		c0.146-1.173,0.3-2.44,0.46-3.8s0.313-2.626,0.46-3.8s0.273-2.173,0.38-3s0.173-1.307,0.2-1.44h3.84l-3.84,31.24h-3.84l0.12-1.12
		c0.025-0.133,0.065-0.28,0.119-0.44s0.08-0.28,0.08-0.36c-0.293,0.24-0.627,0.5-1,0.78c-0.373,0.28-0.813,0.54-1.319,0.78
		c-0.507,0.24-1.067,0.433-1.681,0.58c-0.613,0.146-1.307,0.22-2.08,0.22c-1.253,0-2.354-0.207-3.3-0.62s-1.739-0.973-2.38-1.68
		c-0.64-0.707-1.127-1.533-1.46-2.48C496.466,124.716,496.3,123.696,496.3,122.602z M500.18,122.042c0,1.333,0.42,2.44,1.26,3.32
		c0.841,0.88,1.98,1.32,3.421,1.32c0.826,0,1.605-0.153,2.34-0.46c0.732-0.307,1.359-0.72,1.88-1.24
		c0.52-0.52,0.933-1.133,1.24-1.84c0.306-0.707,0.46-1.46,0.46-2.26c0-1.306-0.42-2.393-1.261-3.26c-0.84-0.866-1.979-1.3-3.42-1.3
		c-0.826,0-1.6,0.147-2.319,0.44c-0.721,0.294-1.348,0.694-1.88,1.2c-0.534,0.507-0.954,1.114-1.261,1.82
		C500.333,120.489,500.18,121.242,500.18,122.042z"/>
	<path d="M529.46,113.002h3.4c-0.054,0.48-0.087,0.907-0.101,1.28c-0.014,0.374-0.026,0.727-0.04,1.06
		c-0.014,0.334-0.026,0.66-0.04,0.98c-0.014,0.32-0.033,0.667-0.06,1.04c0.8-1.44,1.819-2.6,3.06-3.48s2.7-1.32,4.38-1.32
		c1.733,0,3.054,0.474,3.96,1.42c0.906,0.947,1.294,2.18,1.16,3.7l-1.52,12.32h-3.8l1.279-10.52c0.054-0.826-0.146-1.54-0.6-2.14
		c-0.454-0.6-1.24-0.926-2.36-0.98c-0.773,0-1.507,0.14-2.2,0.42c-0.693,0.28-1.3,0.66-1.819,1.14c-0.521,0.48-0.954,1.054-1.3,1.72
		c-0.348,0.667-0.561,1.387-0.641,2.16l-1,8.2h-3.84L529.46,113.002z"/>
	<path d="M562.979,128.042c-0.934,0.747-2.014,1.333-3.239,1.76c-1.228,0.426-2.44,0.64-3.641,0.64c-1.174,0-2.247-0.214-3.22-0.64
		c-0.974-0.426-1.82-1.006-2.54-1.74c-0.72-0.733-1.28-1.586-1.68-2.56c-0.4-0.973-0.601-2.006-0.601-3.1
		c0-1.333,0.28-2.593,0.84-3.78c0.561-1.187,1.313-2.227,2.261-3.12c0.946-0.893,2.025-1.6,3.239-2.12s2.46-0.78,3.74-0.78
		c1.92,0,3.533,0.574,4.84,1.72c1.307,1.147,2.146,2.68,2.521,4.6c-0.854,0.294-1.827,0.647-2.92,1.06
		c-1.094,0.414-2.24,0.847-3.44,1.3c-1.2,0.454-2.399,0.914-3.6,1.38c-1.2,0.467-2.308,0.887-3.32,1.26
		c0.32,0.827,0.854,1.494,1.6,2c0.747,0.507,1.627,0.76,2.641,0.76c0.693,0,1.406-0.126,2.14-0.38
		c0.733-0.253,1.354-0.593,1.86-1.02L562.979,128.042z M560.859,118.042c-0.267-0.586-0.699-1.02-1.3-1.3
		c-0.6-0.28-1.207-0.42-1.819-0.42c-0.747,0-1.461,0.147-2.141,0.44c-0.68,0.294-1.28,0.68-1.8,1.16
		c-0.521,0.48-0.947,1.034-1.28,1.66c-0.334,0.627-0.526,1.26-0.58,1.9c0.693-0.266,1.44-0.553,2.24-0.86
		c0.8-0.306,1.6-0.62,2.4-0.94c0.8-0.32,1.573-0.62,2.319-0.9C559.646,118.502,560.3,118.256,560.859,118.042z M551.939,121.482
		v0.04c0,0.054,0.007,0.074,0.021,0.06C551.973,121.569,551.966,121.536,551.939,121.482z"/>
	<path d="M566.819,122.562c0-1.333,0.28-2.6,0.84-3.8c0.561-1.2,1.313-2.26,2.261-3.18c0.946-0.92,2.025-1.653,3.239-2.2
		c1.214-0.546,2.474-0.82,3.78-0.82c0.8,0,1.506,0.1,2.12,0.3c0.613,0.2,1.133,0.434,1.56,0.7c0.427,0.267,0.761,0.54,1,0.82
		c0.24,0.28,0.387,0.5,0.44,0.66l0.44-2.04h3.68l-2.08,17h-3.88l0.16-1.12c0.026-0.133,0.04-0.26,0.04-0.38s0.013-0.206,0.04-0.26
		c-0.107,0.133-0.308,0.327-0.601,0.58c-0.294,0.254-0.68,0.5-1.16,0.74c-0.479,0.24-1.047,0.446-1.699,0.62
		c-0.654,0.173-1.395,0.26-2.221,0.26c-1.2,0-2.294-0.214-3.279-0.64c-0.987-0.426-1.827-1-2.521-1.72
		c-0.693-0.72-1.227-1.553-1.6-2.5C567.006,124.636,566.819,123.629,566.819,122.562z M570.739,122.042
		c0,1.333,0.42,2.44,1.261,3.32c0.84,0.88,1.979,1.32,3.42,1.32c0.826,0,1.605-0.153,2.34-0.46c0.732-0.307,1.359-0.72,1.88-1.24
		c0.52-0.52,0.933-1.133,1.24-1.84c0.306-0.707,0.46-1.46,0.46-2.26c0-1.306-0.42-2.393-1.261-3.26c-0.84-0.866-1.979-1.3-3.42-1.3
		c-0.826,0-1.6,0.147-2.319,0.44c-0.721,0.294-1.348,0.694-1.88,1.2c-0.534,0.507-0.954,1.114-1.261,1.82
		C570.893,120.489,570.739,121.242,570.739,122.042z"/>
	<path d="M599.819,117.522c-0.72,0-1.434,0.094-2.14,0.28c-0.707,0.187-1.354,0.474-1.94,0.86c-0.587,0.387-1.073,0.867-1.46,1.44
		c-0.387,0.574-0.634,1.247-0.74,2.02l-0.92,7.88h-3.84l2.08-17h3.4c-0.054,0.48-0.087,0.907-0.101,1.28
		c-0.014,0.374-0.026,0.727-0.04,1.06c-0.014,0.334-0.026,0.66-0.04,0.98c-0.014,0.32-0.033,0.667-0.06,1.04
		c0.453-0.746,1.006-1.413,1.66-2c0.652-0.586,1.326-1.086,2.02-1.5c0.693-0.413,1.36-0.733,2-0.96
		c0.64-0.226,1.173-0.34,1.601-0.34L599.819,117.522z"/>
	<path d="M621.019,121.562c-0.16,1.28-0.527,2.46-1.101,3.54s-1.3,2.02-2.18,2.82c-0.88,0.8-1.894,1.42-3.04,1.86
		c-1.146,0.44-2.374,0.66-3.68,0.66c-1.307,0-2.427-0.247-3.36-0.74s-1.56-1.02-1.88-1.58c-0.027,0.107-0.034,0.207-0.02,0.3
		c0.013,0.094,0.006,0.207-0.021,0.34l-0.16,1.24h-3.84l3.84-31.24h3.84l-2,16.4c0.24-0.267,0.547-0.553,0.92-0.86
		c0.374-0.306,0.813-0.586,1.32-0.84c0.507-0.253,1.073-0.466,1.7-0.64c0.626-0.173,1.3-0.26,2.02-0.26
		c1.28,0,2.434,0.207,3.46,0.62c1.026,0.414,1.881,1.014,2.561,1.8c0.68,0.787,1.16,1.734,1.439,2.84
		C621.118,118.929,621.179,120.176,621.019,121.562z M616.818,121.482c0.187-1.493-0.094-2.726-0.84-3.7
		c-0.747-0.973-1.894-1.46-3.44-1.46c-0.854,0-1.64,0.147-2.359,0.44c-0.721,0.294-1.341,0.694-1.86,1.2
		c-0.521,0.507-0.934,1.114-1.24,1.82c-0.307,0.707-0.46,1.46-0.46,2.26c0,1.333,0.413,2.44,1.24,3.32
		c0.826,0.88,1.96,1.32,3.4,1.32c0.772,0,1.479-0.133,2.119-0.4c0.641-0.266,1.2-0.64,1.681-1.12c0.479-0.48,0.873-1.033,1.18-1.66
		C616.545,122.875,616.738,122.202,616.818,121.482z"/>
	<path d="M626.698,138.162h-3.8c0.48-0.8,0.94-1.567,1.38-2.3c0.44-0.733,0.88-1.48,1.32-2.24c0.439-0.76,0.899-1.54,1.38-2.34
		c0.479-0.8,1-1.666,1.56-2.6c-0.479-1.2-0.96-2.466-1.439-3.8c-0.48-1.333-0.967-2.68-1.46-4.04c-0.494-1.36-0.987-2.706-1.48-4.04
		c-0.493-1.333-0.967-2.6-1.42-3.8h4.12c0.773,1.974,1.406,3.627,1.9,4.96c0.493,1.334,0.886,2.454,1.18,3.36
		c0.293,0.907,0.506,1.647,0.64,2.22c0.134,0.574,0.24,1.1,0.32,1.58c0.213-0.48,0.46-1.006,0.74-1.58
		c0.279-0.573,0.673-1.313,1.18-2.22c0.506-0.906,1.16-2.026,1.96-3.36c0.8-1.333,1.826-2.986,3.08-4.96h4.16L626.698,138.162z"/>
	<path d="M665.379,128.042c-0.934,0.747-2.014,1.333-3.239,1.76c-1.228,0.426-2.44,0.64-3.641,0.64c-1.174,0-2.247-0.214-3.22-0.64
		c-0.974-0.426-1.82-1.006-2.54-1.74c-0.72-0.733-1.28-1.586-1.68-2.56c-0.4-0.973-0.601-2.006-0.601-3.1
		c0-1.333,0.28-2.593,0.84-3.78c0.561-1.187,1.313-2.227,2.261-3.12c0.946-0.893,2.025-1.6,3.239-2.12s2.46-0.78,3.74-0.78
		c1.92,0,3.533,0.574,4.84,1.72c1.307,1.147,2.146,2.68,2.521,4.6c-0.854,0.294-1.827,0.647-2.92,1.06
		c-1.094,0.414-2.24,0.847-3.44,1.3c-1.2,0.454-2.399,0.914-3.6,1.38c-1.2,0.467-2.308,0.887-3.32,1.26
		c0.32,0.827,0.854,1.494,1.6,2c0.747,0.507,1.627,0.76,2.641,0.76c0.693,0,1.406-0.126,2.14-0.38
		c0.733-0.253,1.354-0.593,1.86-1.02L665.379,128.042z M663.259,118.042c-0.267-0.586-0.699-1.02-1.3-1.3
		c-0.6-0.28-1.207-0.42-1.819-0.42c-0.747,0-1.461,0.147-2.141,0.44c-0.68,0.294-1.28,0.68-1.8,1.16
		c-0.521,0.48-0.947,1.034-1.28,1.66c-0.334,0.627-0.526,1.26-0.58,1.9c0.693-0.266,1.44-0.553,2.24-0.86
		c0.8-0.306,1.6-0.62,2.4-0.94c0.8-0.32,1.573-0.62,2.319-0.9C662.046,118.502,662.699,118.256,663.259,118.042z M654.339,121.482
		v0.04c0,0.054,0.007,0.074,0.021,0.06C654.372,121.569,654.365,121.536,654.339,121.482z"/>
	<path d="M675.658,131.002c-1.253-3.013-2.406-6.006-3.46-8.98c-1.054-2.973-2.166-5.98-3.34-9.02h4.16
		c0.773,1.974,1.373,3.56,1.8,4.76c0.427,1.2,0.761,2.174,1,2.92c0.24,0.747,0.406,1.34,0.5,1.78s0.181,0.9,0.261,1.38
		c0.186-0.48,0.38-0.94,0.579-1.38c0.2-0.44,0.5-1.033,0.9-1.78s0.966-1.72,1.7-2.92c0.733-1.2,1.727-2.786,2.979-4.76h4.16
		c-1.92,3.04-3.794,6.047-5.62,9.02C679.452,124.996,677.579,127.989,675.658,131.002z"/>
	<path d="M701.419,128.042c-0.934,0.747-2.014,1.333-3.239,1.76c-1.228,0.426-2.44,0.64-3.641,0.64c-1.174,0-2.247-0.214-3.22-0.64
		c-0.974-0.426-1.82-1.006-2.54-1.74c-0.72-0.733-1.28-1.586-1.68-2.56c-0.4-0.973-0.601-2.006-0.601-3.1
		c0-1.333,0.28-2.593,0.84-3.78c0.561-1.187,1.313-2.227,2.261-3.12c0.946-0.893,2.025-1.6,3.239-2.12s2.46-0.78,3.74-0.78
		c1.92,0,3.533,0.574,4.84,1.72c1.307,1.147,2.146,2.68,2.521,4.6c-0.854,0.294-1.827,0.647-2.92,1.06
		c-1.094,0.414-2.24,0.847-3.44,1.3c-1.2,0.454-2.399,0.914-3.6,1.38c-1.2,0.467-2.308,0.887-3.32,1.26
		c0.32,0.827,0.854,1.494,1.6,2c0.747,0.507,1.627,0.76,2.641,0.76c0.693,0,1.406-0.126,2.14-0.38
		c0.733-0.253,1.354-0.593,1.86-1.02L701.419,128.042z M699.299,118.042c-0.267-0.586-0.699-1.02-1.3-1.3
		c-0.6-0.28-1.207-0.42-1.819-0.42c-0.747,0-1.461,0.147-2.141,0.44c-0.68,0.294-1.28,0.68-1.8,1.16
		c-0.521,0.48-0.947,1.034-1.28,1.66c-0.334,0.627-0.526,1.26-0.58,1.9c0.693-0.266,1.44-0.553,2.24-0.86
		c0.8-0.306,1.6-0.62,2.4-0.94c0.8-0.32,1.573-0.62,2.319-0.9C698.086,118.502,698.739,118.256,699.299,118.042z M690.379,121.482
		v0.04c0,0.054,0.007,0.074,0.021,0.06C690.412,121.569,690.405,121.536,690.379,121.482z"/>
	<path d="M707.499,113.002h3.4c-0.054,0.48-0.087,0.907-0.101,1.28c-0.014,0.374-0.026,0.727-0.04,1.06
		c-0.014,0.334-0.026,0.66-0.04,0.98c-0.014,0.32-0.033,0.667-0.06,1.04c0.8-1.44,1.819-2.6,3.06-3.48s2.7-1.32,4.38-1.32
		c1.733,0,3.054,0.474,3.96,1.42c0.906,0.947,1.294,2.18,1.16,3.7l-1.52,12.32h-3.8l1.279-10.52c0.054-0.826-0.146-1.54-0.6-2.14
		c-0.454-0.6-1.24-0.926-2.36-0.98c-0.773,0-1.507,0.14-2.2,0.42c-0.693,0.28-1.3,0.66-1.819,1.14c-0.521,0.48-0.954,1.054-1.3,1.72
		c-0.348,0.667-0.561,1.387-0.641,2.16l-1,8.2h-3.84L707.499,113.002z"/>
	<path d="M730.618,105.562h3.801l-0.88,7.44h4.399l-0.439,3.44h-4.4l-1.68,13.56h-3.801l1.641-13.56h-2.88l0.439-3.44h2.88
		L730.618,105.562z"/>
	<path d="M750.298,114.522c-0.213,0.24-0.446,0.514-0.699,0.82c-0.254,0.307-0.5,0.594-0.74,0.86s-0.534,0.6-0.88,1
		c-0.24-0.187-0.48-0.333-0.721-0.44c-0.239-0.106-0.52-0.206-0.84-0.3c-0.319-0.093-0.653-0.14-1-0.14
		c-0.427,0-0.866,0.1-1.319,0.3c-0.454,0.2-0.681,0.594-0.681,1.18c0,0.4,0.153,0.74,0.46,1.02c0.307,0.28,0.693,0.54,1.16,0.78
		c0.467,0.24,0.974,0.487,1.521,0.74c0.546,0.254,1.053,0.567,1.52,0.94c0.467,0.374,0.854,0.82,1.16,1.34s0.46,1.167,0.46,1.94
		c0,0.827-0.16,1.594-0.479,2.3c-0.32,0.707-0.774,1.32-1.36,1.84c-0.587,0.52-1.28,0.927-2.08,1.22s-1.693,0.44-2.68,0.44
		c-1.094,0-2.127-0.187-3.101-0.56c-0.974-0.373-1.727-0.906-2.26-1.6c0.24-0.213,0.513-0.48,0.82-0.8
		c0.306-0.32,0.6-0.626,0.88-0.92c0.28-0.293,0.606-0.64,0.979-1.04c0-0.026,0.08,0.02,0.24,0.14s0.38,0.26,0.66,0.42
		s0.613,0.307,1,0.44c0.386,0.134,0.793,0.2,1.22,0.2c0.693,0,1.246-0.167,1.66-0.5c0.413-0.333,0.62-0.727,0.62-1.18
		c0-0.373-0.154-0.68-0.46-0.92c-0.307-0.24-0.7-0.466-1.18-0.68c-0.48-0.213-0.987-0.44-1.521-0.68
		c-0.533-0.24-1.04-0.546-1.52-0.92c-0.48-0.373-0.874-0.84-1.181-1.4s-0.46-1.253-0.46-2.08c0-1.066,0.2-1.96,0.601-2.68
		c0.399-0.72,0.913-1.3,1.54-1.74c0.626-0.44,1.3-0.76,2.02-0.96c0.72-0.2,1.4-0.3,2.04-0.3c0.826,0,1.666,0.167,2.521,0.5
		C749.071,113.436,749.765,113.909,750.298,114.522z"/>
	<path d="M755.778,130.402c-0.64,0-1.18-0.24-1.62-0.72c-0.439-0.48-0.62-1.08-0.54-1.8c0.106-0.72,0.44-1.306,1-1.76
		c0.561-0.453,1.146-0.68,1.76-0.68s1.141,0.227,1.58,0.68c0.44,0.454,0.62,1.04,0.54,1.76c-0.106,0.72-0.434,1.32-0.979,1.8
		C756.972,130.162,756.392,130.402,755.778,130.402z M757.498,99.522h4.08l-2.88,23.76h-4.12L757.498,99.522z"/>
</g>
</svg>
